{
  "source": "C:\\Users\\Peter\\Desktop\\stuff\\MIUN\\quantitative_research\\video_compression\\videos\\UVG\\YachtRide_1920x1080_120fps_420_8bit_YUV.y4m",
  "output": "C:\\Users\\Peter\\Desktop\\stuff\\MIUN\\quantitative_research\\video_compression\\compressed_videos\\UVG\\hevc\\3\\YachtRide_1920x1080_120fps_420_8bit_YUV_hevc.mp4",
  "codec": "hevc",
  "ok": "[yuv4mpegpipe @ 00000172664166c0] Stream #0: not enough frames to estimate rate; consider increasing probesize\nInput #0, yuv4mpegpipe, from 'C:\\Users\\Peter\\Desktop\\stuff\\MIUN\\quantitative_research\\video_compression\\videos\\UVG\\YachtRide_1920x1080_120fps_420_8bit_YUV.y4m':\n  Duration: 00:00:05.00, start: 0.000000, bitrate: 2985989 kb/s\n  Stream #0:0: Video: rawvideo (I420 / 0x30323449), yuv420p(progressive), 1920x1080, 120 fps, 120 tbr, 120 tbn\n[out#0/mp4 @ 000001726641b640] Codec AVOption b:a (set bitrate (in bits/s)) has not been used for any stream. The most likely reason is either wrong type (e.g. a video option with no video streams) or that it is a private option of some decoder which was not actually used for any stream.\nStream mapping:\n  Stream #0:0 -> #0:0 (rawvideo (native) -> hevc (libx265))\nPress [q] to stop, [?] for help\n[libx265 @ 000001726641cac0] Unknown option: \"aq-mode.\nx265 [info]: HEVC encoder version 4.1+190-8f11c33ac\nx265 [info]: build info [Windows][GCC 15.1.0][64 bit] 10bit\nx265 [info]: using cpu capabilities: MMX2 SSE2Fast LZCNT SSSE3 SSE4.2 AVX FMA3 BMI2 AVX2\nx265 [info]: Main 10 profile, Level-5 (Main tier)\nx265 [info]: Thread pool created using 12 threads\nx265 [info]: Slices                              : 1\nx265 [info]: frame threads / pool features       : 3 / wpp(17 rows)\nx265 [info]: Coding QT: max CU size, min CU size : 64 / 8\nx265 [info]: Residual QT: max TU size, max depth : 32 / 1 inter / 1 intra\nx265 [info]: ME / range / subpel / merge         : star / 57 / 3 / 3\nx265 [info]: Keyframe min / max / scenecut / bias  : 25 / 250 / 40 / 5.00 \nx265 [info]: Lookahead / bframes / badapt        : 25 / 4 / 2\nx265 [info]: b-pyramid / weightp / weightb       : 1 / 1 / 0\nx265 [info]: References / ref-limit  cu / depth  : 4 / on / on\nx265 [info]: AQ: mode / str / qg-size / cu-tree  : 2 / 1.0 / 32 / 1\nx265 [info]: Rate Control / qCompress            : ABR-3000 kbps / 0.60\nx265 [info]: VBV/HRD buffer / max-rate / init    : 3000 / 3000 / 0.750\nx265 [info]: tools: rect limit-modes rd=4 psy-rd=2.00 rdoq=2 psy-rdoq=1.00\nx265 [info]: tools: rskip mode=1 signhide tmvp strong-intra-smoothing lslices=4\nx265 [info]: tools: deblock sao dhdr10-info\nOutput #0, mp4, to 'C:\\Users\\Peter\\Desktop\\stuff\\MIUN\\quantitative_research\\video_compression\\compressed_videos\\UVG\\hevc\\3\\YachtRide_1920x1080_120fps_420_8bit_YUV_hevc.mp4':\n  Metadata:\n    encoder         : Lavf62.3.100\n  Stream #0:0: Video: hevc (hev1 / 0x31766568), yuv420p10le(tv, progressive), 1920x1080, q=2-31, 3000 kb/s, 120 fps, 15360 tbn\n    Metadata:\n      encoder         : Lavc62.11.100 libx265\n    Side data:\n      cpb: bitrate max/min/avg: 3000000/0/3000000 buffer size: 3000000 vbv_delay: N/A\nframe=    0 fps=0.0 q=0.0 size=       0KiB time=N/A bitrate=N/A speed=N/A elapsed=0:00:00.51    \nframe=    0 fps=0.0 q=0.0 size=       0KiB time=N/A bitrate=N/A speed=N/A elapsed=0:00:01.02    \nframe=    0 fps=0.0 q=0.0 size=       0KiB time=N/A bitrate=N/A speed=N/A elapsed=0:00:01.55    \nframe=    0 fps=0.0 q=0.0 size=       0KiB time=N/A bitrate=N/A speed=N/A elapsed=0:00:02.05    \nframe=    0 fps=0.0 q=0.0 size=       0KiB time=N/A bitrate=N/A speed=N/A elapsed=0:00:02.57    \nframe=    0 fps=0.0 q=0.0 size=       0KiB time=N/A bitrate=N/A speed=N/A elapsed=0:00:03.09    \nframe=    0 fps=0.0 q=0.0 size=       0KiB time=N/A bitrate=N/A speed=N/A elapsed=0:00:03.61    \nframe=    0 fps=0.0 q=0.0 size=       0KiB time=N/A bitrate=N/A speed=N/A elapsed=0:00:04.12    \nframe=    0 fps=0.0 q=0.0 size=       0KiB time=N/A bitrate=N/A speed=N/A elapsed=0:00:04.63    \nframe=    0 fps=0.0 q=0.0 size=       0KiB time=N/A bitrate=N/A speed=N/A elapsed=0:00:05.15    \nframe=    0 fps=0.0 q=0.0 size=       0KiB time=N/A bitrate=N/A speed=N/A elapsed=0:00:05.67    \nframe=    0 fps=0.0 q=0.0 size=       0KiB time=N/A bitrate=N/A speed=N/A elapsed=0:00:06.19    \nframe=    0 fps=0.0 q=0.0 size=       0KiB time=N/A bitrate=N/A speed=N/A elapsed=0:00:06.71    \nframe=    0 fps=0.0 q=0.0 size=       0KiB time=N/A bitrate=N/A speed=N/A elapsed=0:00:07.23    \nframe=    0 fps=0.0 q=0.0 size=       0KiB time=N/A bitrate=N/A speed=N/A elapsed=0:00:07.75    \nframe=    0 fps=0.0 q=0.0 size=       0KiB time=N/A bitrate=N/A speed=N/A elapsed=0:00:08.26    \nframe=    1 fps=0.1 q=46.6 size=       0KiB time=-00:00:00.00 bitrate=N/A speed=N/A elapsed=0:00:08.77    \nframe=    1 fps=0.1 q=46.6 size=       0KiB time=-00:00:00.00 bitrate=N/A speed=N/A elapsed=0:00:09.29    \nframe=    2 fps=0.2 q=50.5 size=       0KiB time=00:00:00.00 bitrate=N/A speed=   0x elapsed=0:00:09.80    \nframe=    3 fps=0.3 q=51.0 size=       0KiB time=00:00:00.00 bitrate=  42.2kbits/s speed=0.000807x elapsed=0:00:10.33    \nframe=    3 fps=0.3 q=51.0 size=       0KiB time=00:00:00.00 bitrate=  42.2kbits/s speed=0.000769x elapsed=0:00:10.84    \nframe=    4 fps=0.4 q=51.0 size=       0KiB time=00:00:00.01 bitrate=  21.1kbits/s speed=0.00147x elapsed=0:00:11.35    \nframe=    4 fps=0.3 q=51.0 size=       0KiB time=00:00:00.01 bitrate=  21.1kbits/s speed=0.0014x elapsed=0:00:11.87    \nframe=    4 fps=0.3 q=51.0 size=       0KiB time=00:00:00.01 bitrate=  21.1kbits/s speed=0.00135x elapsed=0:00:12.38    \nframe=    5 fps=0.4 q=51.0 size=       0KiB time=00:00:00.02 bitrate=  14.1kbits/s speed=0.00194x elapsed=0:00:12.90    \nframe=    5 fps=0.4 q=51.0 size=       0KiB time=00:00:00.02 bitrate=  14.1kbits/s speed=0.00186x elapsed=0:00:13.41    \nframe=    5 fps=0.4 q=51.0 size=       0KiB time=00:00:00.02 bitrate=  14.1kbits/s speed=0.00179x elapsed=0:00:13.93    \nframe=    6 fps=0.4 q=50.9 size=       0KiB time=00:00:00.03 bitrate=  10.6kbits/s speed=0.00231x elapsed=0:00:14.45    \nframe=    6 fps=0.4 q=50.9 size=       0KiB time=00:00:00.03 bitrate=  10.6kbits/s speed=0.00223x elapsed=0:00:14.97    \nframe=    7 fps=0.5 q=44.3 size=       0KiB time=00:00:00.03 bitrate=  10.6kbits/s speed=0.00215x elapsed=0:00:15.48    \nframe=    7 fps=0.4 q=44.3 size=       0KiB time=00:00:00.04 bitrate=   8.4kbits/s speed=0.0026x elapsed=0:00:15.99    \nframe=    8 fps=0.5 q=46.3 size=       0KiB time=00:00:00.05 bitrate=   7.0kbits/s speed=0.00303x elapsed=0:00:16.51    \nframe=    8 fps=0.5 q=46.3 size=       0KiB time=00:00:00.05 bitrate=   7.0kbits/s speed=0.00294x elapsed=0:00:17.03    \nframe=    8 fps=0.5 q=46.3 size=       0KiB time=00:00:00.05 bitrate=   7.0kbits/s speed=0.00285x elapsed=0:00:17.54    \nframe=    8 fps=0.4 q=46.3 size=       0KiB time=00:00:00.05 bitrate=   7.0kbits/s speed=0.00277x elapsed=0:00:18.05    \nframe=    9 fps=0.5 q=46.8 size=       0KiB time=00:00:00.05 bitrate=   6.0kbits/s speed=0.00314x elapsed=0:00:18.58    \nframe=    9 fps=0.5 q=46.8 size=       0KiB time=00:00:00.05 bitrate=   6.0kbits/s speed=0.00305x elapsed=0:00:19.11    \nframe=   10 fps=0.5 q=46.7 size=       0KiB time=00:00:00.06 bitrate=   5.3kbits/s speed=0.0034x elapsed=0:00:19.62    \nframe=   10 fps=0.5 q=46.7 size=       0KiB time=00:00:00.06 bitrate=   5.3kbits/s speed=0.00331x elapsed=0:00:20.14    \nframe=   12 fps=0.6 q=47.3 size=       0KiB time=00:00:00.08 bitrate=   4.2kbits/s speed=0.00403x elapsed=0:00:20.65    \nframe=   12 fps=0.6 q=47.3 size=       0KiB time=00:00:00.08 bitrate=   4.2kbits/s speed=0.00394x elapsed=0:00:21.17    \nframe=   12 fps=0.6 q=47.3 size=       0KiB time=00:00:00.08 bitrate=   4.2kbits/s speed=0.00384x elapsed=0:00:21.68    \nframe=   13 fps=0.6 q=47.8 size=       0KiB time=00:00:00.09 bitrate=   3.8kbits/s speed=0.00413x elapsed=0:00:22.20    \nframe=   13 fps=0.6 q=47.8 size=       0KiB time=00:00:00.09 bitrate=   3.8kbits/s speed=0.00403x elapsed=0:00:22.72    \nframe=   14 fps=0.6 q=48.0 size=       0KiB time=00:00:00.10 bitrate=   3.5kbits/s speed=0.0043x elapsed=0:00:23.23    \nframe=   14 fps=0.6 q=48.0 size=       0KiB time=00:00:00.10 bitrate=   3.5kbits/s speed=0.00421x elapsed=0:00:23.74    \nframe=   14 fps=0.6 q=48.0 size=       0KiB time=00:00:00.10 bitrate=   3.5kbits/s speed=0.00412x elapsed=0:00:24.26    \nframe=   14 fps=0.6 q=48.0 size=       0KiB time=00:00:00.10 bitrate=   3.5kbits/s speed=0.00404x elapsed=0:00:24.77    \nframe=   15 fps=0.6 q=41.4 size=       0KiB time=00:00:00.10 bitrate=   3.2kbits/s speed=0.00428x elapsed=0:00:25.29    \nframe=   15 fps=0.6 q=41.4 size=       0KiB time=00:00:00.10 bitrate=   3.2kbits/s speed=0.0042x elapsed=0:00:25.81    \nframe=   16 fps=0.6 q=45.7 size=       0KiB time=00:00:00.11 bitrate=   3.0kbits/s speed=0.00443x elapsed=0:00:26.32    \nframe=   16 fps=0.6 q=45.7 size=       0KiB time=00:00:00.11 bitrate=   3.0kbits/s speed=0.00435x elapsed=0:00:26.84    \nframe=   17 fps=0.6 q=47.9 size=       0KiB time=00:00:00.12 bitrate=   2.8kbits/s speed=0.00457x elapsed=0:00:27.36    \nframe=   17 fps=0.6 q=47.9 size=       0KiB time=00:00:00.12 bitrate=   2.8kbits/s speed=0.00448x elapsed=0:00:27.87    \nframe=   17 fps=0.6 q=47.9 size=       0KiB time=00:00:00.12 bitrate=   2.8kbits/s speed=0.0044x elapsed=0:00:28.38    \nframe=   18 fps=0.6 q=47.9 size=       0KiB time=00:00:00.13 bitrate=   2.6kbits/s speed=0.00461x elapsed=0:00:28.91    \nframe=   18 fps=0.6 q=47.9 size=       0KiB time=00:00:00.13 bitrate=   2.6kbits/s speed=0.00453x elapsed=0:00:29.43    \nframe=   18 fps=0.6 q=47.9 size=       0KiB time=00:00:00.13 bitrate=   2.6kbits/s speed=0.00445x elapsed=0:00:29.94    \nframe=   18 fps=0.6 q=47.9 size=       0KiB time=00:00:00.13 bitrate=   2.6kbits/s speed=0.00438x elapsed=0:00:30.46    \nframe=   18 fps=0.6 q=47.9 size=       0KiB time=00:00:00.13 bitrate=   2.6kbits/s speed=0.0043x elapsed=0:00:30.98    \nframe=   18 fps=0.6 q=47.9 size=       0KiB time=00:00:00.13 bitrate=   2.6kbits/s speed=0.00423x elapsed=0:00:31.50    \nframe=   18 fps=0.6 q=47.9 size=       0KiB time=00:00:00.13 bitrate=   2.6kbits/s speed=0.00416x elapsed=0:00:32.01    \nframe=   20 fps=0.6 q=45.2 size=       0KiB time=00:00:00.15 bitrate=   2.3kbits/s speed=0.00461x elapsed=0:00:32.53    \nframe=   20 fps=0.6 q=45.2 size=       0KiB time=00:00:00.15 bitrate=   2.3kbits/s speed=0.00454x elapsed=0:00:33.04    \nframe=   20 fps=0.6 q=45.2 size=       0KiB time=00:00:00.15 bitrate=   2.3kbits/s speed=0.00447x elapsed=0:00:33.56    \nframe=   21 fps=0.6 q=47.8 size=       0KiB time=00:00:00.15 bitrate=   2.2kbits/s speed=0.00465x elapsed=0:00:34.08    \nframe=   21 fps=0.6 q=47.8 size=       0KiB time=00:00:00.15 bitrate=   2.2kbits/s speed=0.00458x elapsed=0:00:34.59    \nframe=   21 fps=0.6 q=47.8 size=       0KiB time=00:00:00.15 bitrate=   2.2kbits/s speed=0.00451x elapsed=0:00:35.11    \nframe=   22 fps=0.6 q=46.9 size=       0KiB time=00:00:00.16 bitrate=   2.1kbits/s speed=0.00468x elapsed=0:00:35.61    \nframe=   22 fps=0.6 q=46.9 size=       0KiB time=00:00:00.16 bitrate=   2.1kbits/s speed=0.00461x elapsed=0:00:36.14    \nframe=   22 fps=0.6 q=46.9 size=       0KiB time=00:00:00.16 bitrate=   2.1kbits/s speed=0.00455x elapsed=0:00:36.65    \nframe=   23 fps=0.6 q=41.1 size=       0KiB time=00:00:00.17 bitrate=   2.0kbits/s speed=0.00471x elapsed=0:00:37.17    \nframe=   23 fps=0.6 q=41.1 size=       0KiB time=00:00:00.17 bitrate=   2.0kbits/s speed=0.00464x elapsed=0:00:37.68    \nframe=   24 fps=0.6 q=44.8 size=       0KiB time=00:00:00.18 bitrate=   1.9kbits/s speed=0.0048x elapsed=0:00:38.19    \nframe=   24 fps=0.6 q=44.8 size=       0KiB time=00:00:00.18 bitrate=   1.9kbits/s speed=0.00473x elapsed=0:00:38.72    \nframe=   24 fps=0.6 q=44.8 size=       0KiB time=00:00:00.18 bitrate=   1.9kbits/s speed=0.00467x elapsed=0:00:39.23    \nframe=   24 fps=0.6 q=44.8 size=       0KiB time=00:00:00.18 bitrate=   1.9kbits/s speed=0.00461x elapsed=0:00:39.74    \nframe=   25 fps=0.6 q=47.0 size=       0KiB time=00:00:00.19 bitrate=   1.8kbits/s speed=0.00476x elapsed=0:00:40.26    \nframe=   26 fps=0.6 q=47.0 size=       0KiB time=00:00:00.20 bitrate=   1.8kbits/s speed=0.0049x elapsed=0:00:40.78    \nframe=   26 fps=0.6 q=47.0 size=       0KiB time=00:00:00.20 bitrate=   1.8kbits/s speed=0.00484x elapsed=0:00:41.29    \nframe=   26 fps=0.6 q=47.0 size=       0KiB time=00:00:00.20 bitrate=   1.8kbits/s speed=0.00478x elapsed=0:00:41.81    \nframe=   26 fps=0.6 q=47.0 size=       0KiB time=00:00:00.20 bitrate=   1.8kbits/s speed=0.00472x elapsed=0:00:42.33    \nframe=   27 fps=0.6 q=40.5 size=       0KiB time=00:00:00.20 bitrate=   1.7kbits/s speed=0.00486x elapsed=0:00:42.84    \nframe=   27 fps=0.6 q=40.5 size=       0KiB time=00:00:00.20 bitrate=   1.7kbits/s speed=0.00481x elapsed=0:00:43.35    \nframe=   27 fps=0.6 q=40.5 size=       0KiB time=00:00:00.20 bitrate=   1.7kbits/s speed=0.00475x elapsed=0:00:43.87    \nframe=   28 fps=0.6 q=44.7 size=       0KiB time=00:00:00.21 bitrate=   1.6kbits/s speed=0.00488x elapsed=0:00:44.38    \nframe=   28 fps=0.6 q=44.7 size=       0KiB time=00:00:00.21 bitrate=   1.6kbits/s speed=0.00482x elapsed=0:00:44.90    \nframe=   28 fps=0.6 q=44.7 size=       0KiB time=00:00:00.21 bitrate=   1.6kbits/s speed=0.00477x elapsed=0:00:45.42    \nframe=   29 fps=0.6 q=47.0 size=       0KiB time=00:00:00.22 bitrate=   1.6kbits/s speed=0.0049x elapsed=0:00:45.93    \nframe=   29 fps=0.6 q=47.0 size=       0KiB time=00:00:00.22 bitrate=   1.6kbits/s speed=0.00484x elapsed=0:00:46.44    \nframe=   29 fps=0.6 q=47.0 size=       0KiB time=00:00:00.22 bitrate=   1.6kbits/s speed=0.00479x elapsed=0:00:46.96    \nframe=   29 fps=0.6 q=47.0 size=       0KiB time=00:00:00.22 bitrate=   1.6kbits/s speed=0.00474x elapsed=0:00:47.47    \nframe=   30 fps=0.6 q=47.0 size=       0KiB time=00:00:00.23 bitrate=   1.5kbits/s speed=0.00486x elapsed=0:00:48.00    \nframe=   30 fps=0.6 q=47.0 size=       0KiB time=00:00:00.23 bitrate=   1.5kbits/s speed=0.00481x elapsed=0:00:48.52    \nframe=   30 fps=0.6 q=47.0 size=       0KiB time=00:00:00.23 bitrate=   1.5kbits/s speed=0.00476x elapsed=0:00:49.04    \nframe=   31 fps=0.6 q=40.9 size=       0KiB time=00:00:00.24 bitrate=   1.5kbits/s speed=0.00488x elapsed=0:00:49.56    \nframe=   31 fps=0.6 q=40.9 size=       0KiB time=00:00:00.24 bitrate=   1.5kbits/s speed=0.00483x elapsed=0:00:50.08    \nframe=   32 fps=0.6 q=44.8 size=       0KiB time=00:00:00.25 bitrate=   1.4kbits/s speed=0.00494x elapsed=0:00:50.59    \nframe=   32 fps=0.6 q=44.8 size=       0KiB time=00:00:00.25 bitrate=   1.4kbits/s speed=0.00489x elapsed=0:00:51.11    \nframe=   32 fps=0.6 q=44.8 size=       0KiB time=00:00:00.25 bitrate=   1.4kbits/s speed=0.00484x elapsed=0:00:51.62    \nframe=   32 fps=0.6 q=44.8 size=       0KiB time=00:00:00.25 bitrate=   1.4kbits/s speed=0.0048x elapsed=0:00:52.13    \nframe=   33 fps=0.6 q=46.8 size=       0KiB time=00:00:00.25 bitrate=   1.4kbits/s speed=0.00491x elapsed=0:00:52.66    \nframe=   33 fps=0.6 q=46.8 size=       0KiB time=00:00:00.25 bitrate=   1.4kbits/s speed=0.00486x elapsed=0:00:53.16    \nframe=   33 fps=0.6 q=46.8 size=       0KiB time=00:00:00.25 bitrate=   1.4kbits/s speed=0.00481x elapsed=0:00:53.68    \nframe=   34 fps=0.6 q=46.9 size=       0KiB time=00:00:00.26 bitrate=   1.3kbits/s speed=0.00492x elapsed=0:00:54.20    \nframe=   34 fps=0.6 q=46.9 size=       0KiB time=00:00:00.26 bitrate=   1.3kbits/s speed=0.00487x elapsed=0:00:54.71    \nframe=   34 fps=0.6 q=46.9 size=       0KiB time=00:00:00.26 bitrate=   1.3kbits/s speed=0.00483x elapsed=0:00:55.23    \nframe=   34 fps=0.6 q=46.9 size=       0KiB time=00:00:00.26 bitrate=   1.3kbits/s speed=0.00478x elapsed=0:00:55.74    \nframe=   34 fps=0.6 q=46.9 size=       0KiB time=00:00:00.26 bitrate=   1.3kbits/s speed=0.00474x elapsed=0:00:56.26    \nframe=   35 fps=0.6 q=40.6 size=       0KiB time=00:00:00.27 bitrate=   1.3kbits/s speed=0.00484x elapsed=0:00:56.78    \nframe=   35 fps=0.6 q=40.6 size=       0KiB time=00:00:00.27 bitrate=   1.3kbits/s speed=0.0048x elapsed=0:00:57.29    \nframe=   35 fps=0.6 q=40.6 size=       0KiB time=00:00:00.27 bitrate=   1.3kbits/s speed=0.00476x elapsed=0:00:57.81    \nframe=   36 fps=0.6 q=44.8 size=       0KiB time=00:00:00.28 bitrate=   1.2kbits/s speed=0.00486x elapsed=0:00:58.32    \nframe=   36 fps=0.6 q=44.8 size=       0KiB time=00:00:00.28 bitrate=   1.2kbits/s speed=0.00482x elapsed=0:00:58.84    \nframe=   36 fps=0.6 q=44.8 size=       0KiB time=00:00:00.28 bitrate=   1.2kbits/s speed=0.00477x elapsed=0:00:59.35    \nframe=   36 fps=0.6 q=44.8 size=       0KiB time=00:00:00.28 bitrate=   1.2kbits/s speed=0.00473x elapsed=0:00:59.87    \nframe=   36 fps=0.6 q=44.8 size=       0KiB time=00:00:00.28 bitrate=   1.2kbits/s speed=0.00469x elapsed=0:01:00.38    \nframe=   37 fps=0.6 q=46.9 size=       0KiB time=00:00:00.29 bitrate=   1.2kbits/s speed=0.00479x elapsed=0:01:00.91    \nframe=   37 fps=0.6 q=46.9 size=       0KiB time=00:00:00.29 bitrate=   1.2kbits/s speed=0.00475x elapsed=0:01:01.41    \nframe=   37 fps=0.6 q=46.9 size=       0KiB time=00:00:00.29 bitrate=   1.2kbits/s speed=0.00471x elapsed=0:01:01.93    \nframe=   37 fps=0.6 q=46.9 size=       0KiB time=00:00:00.29 bitrate=   1.2kbits/s speed=0.00467x elapsed=0:01:02.45    \nframe=   38 fps=0.6 q=47.0 size=       0KiB time=00:00:00.30 bitrate=   1.2kbits/s speed=0.00476x elapsed=0:01:02.96    \nframe=   38 fps=0.6 q=47.0 size=       0KiB time=00:00:00.30 bitrate=   1.2kbits/s speed=0.00473x elapsed=0:01:03.47    \nframe=   39 fps=0.6 q=40.8 size=       0KiB time=00:00:00.30 bitrate=   1.1kbits/s speed=0.00482x elapsed=0:01:03.99    \nframe=   40 fps=0.6 q=44.9 size=       0KiB time=00:00:00.31 bitrate=   1.1kbits/s speed=0.00491x elapsed=0:01:04.52    \nframe=   40 fps=0.6 q=44.9 size=       0KiB time=00:00:00.31 bitrate=   1.1kbits/s speed=0.00487x elapsed=0:01:05.05    \nframe=   40 fps=0.6 q=44.9 size=       0KiB time=00:00:00.31 bitrate=   1.1kbits/s speed=0.00483x elapsed=0:01:05.58    \nframe=   40 fps=0.6 q=44.9 size=       0KiB time=00:00:00.31 bitrate=   1.1kbits/s speed=0.00479x elapsed=0:01:06.09    \nframe=   40 fps=0.6 q=44.9 size=       0KiB time=00:00:00.31 bitrate=   1.1kbits/s speed=0.00475x elapsed=0:01:06.60    \nframe=   41 fps=0.6 q=47.0 size=       0KiB time=00:00:00.32 bitrate=   1.1kbits/s speed=0.00484x elapsed=0:01:07.13    \nframe=   41 fps=0.6 q=47.0 size=       0KiB time=00:00:00.32 bitrate=   1.1kbits/s speed=0.0048x elapsed=0:01:07.64    \nframe=   41 fps=0.6 q=47.0 size=       0KiB time=00:00:00.32 bitrate=   1.1kbits/s speed=0.00477x elapsed=0:01:08.15    \nframe=   42 fps=0.6 q=46.9 size=       0KiB time=00:00:00.33 bitrate=   1.1kbits/s speed=0.00485x elapsed=0:01:08.67    \nframe=   42 fps=0.6 q=46.9 size=       0KiB time=00:00:00.33 bitrate=   1.1kbits/s speed=0.00482x elapsed=0:01:09.19    \nframe=   42 fps=0.6 q=46.9 size=       0KiB time=00:00:00.33 bitrate=   1.1kbits/s speed=0.00478x elapsed=0:01:09.71    \nframe=   43 fps=0.6 q=41.0 size=       0KiB time=00:00:00.34 bitrate=   1.0kbits/s speed=0.00486x elapsed=0:01:10.23    \nframe=   43 fps=0.6 q=41.0 size=       0KiB time=00:00:00.34 bitrate=   1.0kbits/s speed=0.00483x elapsed=0:01:10.74    \nframe=   44 fps=0.6 q=45.0 size=       0KiB time=00:00:00.35 bitrate=   1.0kbits/s speed=0.00491x elapsed=0:01:11.25    \nframe=   44 fps=0.6 q=45.0 size=       0KiB time=00:00:00.35 bitrate=   1.0kbits/s speed=0.00488x elapsed=0:01:11.78    \nframe=   44 fps=0.6 q=45.0 size=       0KiB time=00:00:00.35 bitrate=   1.0kbits/s speed=0.00484x elapsed=0:01:12.29    \nframe=   44 fps=0.6 q=45.0 size=       0KiB time=00:00:00.35 bitrate=   1.0kbits/s speed=0.00481x elapsed=0:01:12.81    \nframe=   44 fps=0.6 q=45.0 size=       0KiB time=00:00:00.35 bitrate=   1.0kbits/s speed=0.00477x elapsed=0:01:13.32    \nframe=   45 fps=0.6 q=47.0 size=       0KiB time=00:00:00.35 bitrate=   1.0kbits/s speed=0.00485x elapsed=0:01:13.84    \nframe=   45 fps=0.6 q=47.0 size=       0KiB time=00:00:00.35 bitrate=   1.0kbits/s speed=0.00482x elapsed=0:01:14.36    \nframe=   45 fps=0.6 q=47.0 size=       0KiB time=00:00:00.35 bitrate=   1.0kbits/s speed=0.00479x elapsed=0:01:14.87    \nframe=   45 fps=0.6 q=47.0 size=       0KiB time=00:00:00.35 bitrate=   1.0kbits/s speed=0.00475x elapsed=0:01:15.38    \nframe=   45 fps=0.6 q=47.0 size=       0KiB time=00:00:00.35 bitrate=   1.0kbits/s speed=0.00472x elapsed=0:01:15.90    \nframe=   46 fps=0.6 q=46.8 size=       0KiB time=00:00:00.36 bitrate=   1.0kbits/s speed=0.0048x elapsed=0:01:16.42    \nframe=   46 fps=0.6 q=46.8 size=       0KiB time=00:00:00.36 bitrate=   1.0kbits/s speed=0.00477x elapsed=0:01:16.93    \nframe=   47 fps=0.6 q=41.1 size=       0KiB time=00:00:00.37 bitrate=   0.9kbits/s speed=0.00484x elapsed=0:01:17.46    \nframe=   47 fps=0.6 q=41.1 size=       0KiB time=00:00:00.37 bitrate=   0.9kbits/s speed=0.00481x elapsed=0:01:17.98    \nframe=   48 fps=0.6 q=44.6 size=       0KiB time=00:00:00.38 bitrate=   0.9kbits/s speed=0.00488x elapsed=0:01:18.50    \nframe=   48 fps=0.6 q=44.6 size=       0KiB time=00:00:00.38 bitrate=   0.9kbits/s speed=0.00485x elapsed=0:01:19.03    \nframe=   48 fps=0.6 q=44.6 size=       0KiB time=00:00:00.38 bitrate=   0.9kbits/s speed=0.00482x elapsed=0:01:19.54    \nframe=   48 fps=0.6 q=44.6 size=       0KiB time=00:00:00.38 bitrate=   0.9kbits/s speed=0.00479x elapsed=0:01:20.06    \nframe=   49 fps=0.6 q=47.0 size=       0KiB time=00:00:00.39 bitrate=   0.9kbits/s speed=0.00486x elapsed=0:01:20.57    \nframe=   49 fps=0.6 q=47.0 size=       0KiB time=00:00:00.39 bitrate=   0.9kbits/s speed=0.00483x elapsed=0:01:21.09    \nframe=   50 fps=0.6 q=47.0 size=       0KiB time=00:00:00.40 bitrate=   0.9kbits/s speed=0.0049x elapsed=0:01:21.61    \nframe=   50 fps=0.6 q=47.0 size=       0KiB time=00:00:00.40 bitrate=   0.9kbits/s speed=0.00487x elapsed=0:01:22.12    \nframe=   50 fps=0.6 q=47.0 size=       0KiB time=00:00:00.40 bitrate=   0.9kbits/s speed=0.00484x elapsed=0:01:22.63    \nframe=   50 fps=0.6 q=47.0 size=       0KiB time=00:00:00.40 bitrate=   0.9kbits/s speed=0.00481x elapsed=0:01:23.15    \nframe=   50 fps=0.6 q=47.0 size=       0KiB time=00:00:00.40 bitrate=   0.9kbits/s speed=0.00478x elapsed=0:01:23.67    \nframe=   50 fps=0.6 q=47.0 size=       0KiB time=00:00:00.40 bitrate=   0.9kbits/s speed=0.00475x elapsed=0:01:24.19    \nframe=   51 fps=0.6 q=41.2 size=       0KiB time=00:00:00.40 bitrate=   0.9kbits/s speed=0.00482x elapsed=0:01:24.70    \nframe=   51 fps=0.6 q=41.2 size=       0KiB time=00:00:00.40 bitrate=   0.9kbits/s speed=0.00479x elapsed=0:01:25.21    \nframe=   52 fps=0.6 q=44.6 size=       0KiB time=00:00:00.41 bitrate=   0.8kbits/s speed=0.00486x elapsed=0:01:25.73    \nframe=   52 fps=0.6 q=44.6 size=       0KiB time=00:00:00.41 bitrate=   0.8kbits/s speed=0.00483x elapsed=0:01:26.25    \nframe=   52 fps=0.6 q=44.6 size=       0KiB time=00:00:00.41 bitrate=   0.8kbits/s speed=0.0048x elapsed=0:01:26.76    \nframe=   53 fps=0.6 q=46.9 size=       0KiB time=00:00:00.42 bitrate=   0.8kbits/s speed=0.00487x elapsed=0:01:27.27    \nframe=   53 fps=0.6 q=46.9 size=       0KiB time=00:00:00.42 bitrate=   0.8kbits/s speed=0.00484x elapsed=0:01:27.79    \nframe=   53 fps=0.6 q=46.9 size=       0KiB time=00:00:00.42 bitrate=   0.8kbits/s speed=0.00481x elapsed=0:01:28.31    \nframe=   54 fps=0.6 q=46.9 size=       0KiB time=00:00:00.43 bitrate=   0.8kbits/s speed=0.00488x elapsed=0:01:28.82    \nframe=   54 fps=0.6 q=46.9 size=       0KiB time=00:00:00.43 bitrate=   0.8kbits/s speed=0.00485x elapsed=0:01:29.34    \nframe=   54 fps=0.6 q=46.9 size=       0KiB time=00:00:00.43 bitrate=   0.8kbits/s speed=0.00482x elapsed=0:01:29.86    \nframe=   54 fps=0.6 q=46.9 size=       0KiB time=00:00:00.43 bitrate=   0.8kbits/s speed=0.00479x elapsed=0:01:30.37    \nframe=   54 fps=0.6 q=46.9 size=       0KiB time=00:00:00.43 bitrate=   0.8kbits/s speed=0.00477x elapsed=0:01:30.88    \nframe=   54 fps=0.6 q=46.9 size=       0KiB time=00:00:00.43 bitrate=   0.8kbits/s speed=0.00474x elapsed=0:01:31.41    \nframe=   54 fps=0.6 q=46.9 size=       0KiB time=00:00:00.43 bitrate=   0.8kbits/s speed=0.00471x elapsed=0:01:31.92    \nframe=   55 fps=0.6 q=41.3 size=       0KiB time=00:00:00.44 bitrate=   0.8kbits/s speed=0.00478x elapsed=0:01:32.43    \nframe=   55 fps=0.6 q=41.3 size=       0KiB time=00:00:00.44 bitrate=   0.8kbits/s speed=0.00475x elapsed=0:01:32.95    \nframe=   55 fps=0.6 q=41.3 size=       0KiB time=00:00:00.44 bitrate=   0.8kbits/s speed=0.00473x elapsed=0:01:33.47    \nframe=   55 fps=0.6 q=41.3 size=       0KiB time=00:00:00.44 bitrate=   0.8kbits/s speed=0.0047x elapsed=0:01:33.98    \nframe=   56 fps=0.6 q=44.7 size=       0KiB time=00:00:00.45 bitrate=   0.8kbits/s speed=0.00476x elapsed=0:01:34.50    \nframe=   56 fps=0.6 q=44.7 size=       0KiB time=00:00:00.45 bitrate=   0.8kbits/s speed=0.00474x elapsed=0:01:35.01    \nframe=   56 fps=0.6 q=44.7 size=       0KiB time=00:00:00.45 bitrate=   0.8kbits/s speed=0.00471x elapsed=0:01:35.53    \nframe=   56 fps=0.6 q=44.7 size=       0KiB time=00:00:00.45 bitrate=   0.8kbits/s speed=0.00469x elapsed=0:01:36.04    \nframe=   57 fps=0.6 q=46.8 size=       0KiB time=00:00:00.45 bitrate=   0.8kbits/s speed=0.00475x elapsed=0:01:36.55    \nframe=   57 fps=0.6 q=46.8 size=       0KiB time=00:00:00.45 bitrate=   0.8kbits/s speed=0.00472x elapsed=0:01:37.07    \nframe=   58 fps=0.6 q=47.0 size=       0KiB time=00:00:00.46 bitrate=   0.8kbits/s speed=0.00478x elapsed=0:01:37.59    \nframe=   59 fps=0.6 q=41.2 size=       0KiB time=00:00:00.47 bitrate=   0.7kbits/s speed=0.00484x elapsed=0:01:38.10    \nframe=   60 fps=0.6 q=44.7 size=       0KiB time=00:00:00.48 bitrate=   0.7kbits/s speed=0.0049x elapsed=0:01:38.62    \nframe=   60 fps=0.6 q=44.7 size=       0KiB time=00:00:00.48 bitrate=   0.7kbits/s speed=0.00488x elapsed=0:01:39.14    \nframe=   61 fps=0.6 q=46.8 size=       0KiB time=00:00:00.49 bitrate=   0.7kbits/s speed=0.00493x elapsed=0:01:39.65    \nframe=   62 fps=0.6 q=46.9 size=       0KiB time=00:00:00.50 bitrate=   0.7kbits/s speed=0.00499x elapsed=0:01:40.17    \nframe=   62 fps=0.6 q=46.9 size=       0KiB time=00:00:00.50 bitrate=   0.7kbits/s speed=0.00497x elapsed=0:01:40.68    \nframe=   63 fps=0.6 q=41.2 size=       0KiB time=00:00:00.50 bitrate=   0.7kbits/s speed=0.00502x elapsed=0:01:41.20    \nframe=   64 fps=0.6 q=45.0 size=       0KiB time=00:00:00.51 bitrate=   0.7kbits/s speed=0.00508x elapsed=0:01:41.72    \nframe=   65 fps=0.6 q=46.9 size=       0KiB time=00:00:00.52 bitrate=   0.7kbits/s speed=0.00514x elapsed=0:01:42.23    \nframe=   65 fps=0.6 q=46.9 size=       0KiB time=00:00:00.52 bitrate=   0.7kbits/s speed=0.00511x elapsed=0:01:42.74    \nframe=   66 fps=0.6 q=46.8 size=       0KiB time=00:00:00.53 bitrate=   0.7kbits/s speed=0.00516x elapsed=0:01:43.26    \nframe=   68 fps=0.7 q=44.3 size=       0KiB time=00:00:00.55 bitrate=   0.6kbits/s speed=0.0053x elapsed=0:01:43.79    \nframe=   69 fps=0.7 q=46.9 size=       0KiB time=00:00:00.55 bitrate=   0.6kbits/s speed=0.00535x elapsed=0:01:44.32    \nframe=   70 fps=0.7 q=47.0 size=       0KiB time=00:00:00.56 bitrate=   0.6kbits/s speed=0.0054x elapsed=0:01:44.85    \nframe=   71 fps=0.7 q=41.1 size=       0KiB time=00:00:00.57 bitrate=   0.6kbits/s speed=0.00546x elapsed=0:01:45.37    \nframe=   72 fps=0.7 q=45.0 size=       0KiB time=00:00:00.58 bitrate=   0.6kbits/s speed=0.00551x elapsed=0:01:45.89    \nframe=   74 fps=0.7 q=46.9 size=       0KiB time=00:00:00.60 bitrate=   0.6kbits/s speed=0.00564x elapsed=0:01:46.42    \nframe=   76 fps=0.7 q=45.0 size=       0KiB time=00:00:00.61 bitrate=   0.6kbits/s speed=0.00577x elapsed=0:01:46.93    \nframe=   77 fps=0.7 q=46.8 size=       0KiB time=00:00:00.62 bitrate=   0.6kbits/s speed=0.00582x elapsed=0:01:47.44    \nframe=   78 fps=0.7 q=47.0 size=       0KiB time=00:00:00.63 bitrate=   0.6kbits/s speed=0.00587x elapsed=0:01:47.97    \nframe=   79 fps=0.7 q=41.1 size=       0KiB time=00:00:00.64 bitrate=   0.5kbits/s speed=0.00591x elapsed=0:01:48.48    \nframe=   80 fps=0.7 q=44.5 size=       0KiB time=00:00:00.65 bitrate=   0.5kbits/s speed=0.00596x elapsed=0:01:48.99    \nframe=   81 fps=0.7 q=46.7 size=       0KiB time=00:00:00.65 bitrate=   0.5kbits/s speed=0.00601x elapsed=0:01:49.51    \nframe=   82 fps=0.7 q=46.9 size=       0KiB time=00:00:00.66 bitrate=   0.5kbits/s speed=0.00606x elapsed=0:01:50.03    \nframe=   83 fps=0.8 q=41.0 size=       0KiB time=00:00:00.67 bitrate=   0.5kbits/s speed=0.00611x elapsed=0:01:50.54    \nframe=   84 fps=0.8 q=44.8 size=       0KiB time=00:00:00.68 bitrate=   0.5kbits/s speed=0.00615x elapsed=0:01:51.05    \nframe=   84 fps=0.8 q=44.8 size=       0KiB time=00:00:00.68 bitrate=   0.5kbits/s speed=0.00612x elapsed=0:01:51.58    \nframe=   85 fps=0.8 q=46.9 size=       0KiB time=00:00:00.69 bitrate=   0.5kbits/s speed=0.00617x elapsed=0:01:52.09    \nframe=   86 fps=0.8 q=47.0 size=       0KiB time=00:00:00.70 bitrate=   0.5kbits/s speed=0.00622x elapsed=0:01:52.60    \nframe=   87 fps=0.8 q=41.1 size=       0KiB time=00:00:00.70 bitrate=   0.5kbits/s speed=0.00626x elapsed=0:01:53.12    \nframe=   88 fps=0.8 q=44.7 size=     256KiB time=00:00:00.71 bitrate=2926.7kbits/s speed=0.00631x elapsed=0:01:53.63    \nframe=   89 fps=0.8 q=46.9 size=     256KiB time=00:00:00.72 bitrate=2893.1kbits/s speed=0.00635x elapsed=0:01:54.15    \nframe=   90 fps=0.8 q=46.9 size=     256KiB time=00:00:00.73 bitrate=2860.2kbits/s speed=0.0064x elapsed=0:01:54.67    \nframe=   91 fps=0.8 q=41.2 size=     256KiB time=00:00:00.74 bitrate=2828.1kbits/s speed=0.00644x elapsed=0:01:55.18    \nframe=   92 fps=0.8 q=44.7 size=     256KiB time=00:00:00.75 bitrate=2796.7kbits/s speed=0.00648x elapsed=0:01:55.70    \nframe=   93 fps=0.8 q=46.8 size=     256KiB time=00:00:00.75 bitrate=2765.9kbits/s speed=0.00653x elapsed=0:01:56.21    \nframe=   94 fps=0.8 q=46.8 size=     256KiB time=00:00:00.76 bitrate=2735.9kbits/s speed=0.00657x elapsed=0:01:56.73    \nframe=   96 fps=0.8 q=44.5 size=     256KiB time=00:00:00.78 bitrate=2677.7kbits/s speed=0.00668x elapsed=0:01:57.25    \nframe=   96 fps=0.8 q=44.5 size=     256KiB time=00:00:00.78 bitrate=2677.7kbits/s speed=0.00665x elapsed=0:01:57.76    \nframe=   97 fps=0.8 q=46.9 size=     256KiB time=00:00:00.79 bitrate=2649.5kbits/s speed=0.00669x elapsed=0:01:58.27    \nframe=   98 fps=0.8 q=46.8 size=     256KiB time=00:00:00.80 bitrate=2621.9kbits/s speed=0.00673x elapsed=0:01:58.79    \nframe=  100 fps=0.8 q=44.6 size=     256KiB time=00:00:00.81 bitrate=2568.4kbits/s speed=0.00684x elapsed=0:01:59.31    \nframe=  100 fps=0.8 q=44.6 size=     256KiB time=00:00:00.81 bitrate=2568.4kbits/s speed=0.00682x elapsed=0:01:59.82    \nframe=  101 fps=0.8 q=47.0 size=     256KiB time=00:00:00.82 bitrate=2542.4kbits/s speed=0.00686x elapsed=0:02:00.34    \nframe=  102 fps=0.8 q=46.9 size=     256KiB time=00:00:00.83 bitrate=2517.0kbits/s speed=0.0069x elapsed=0:02:00.85    \nframe=  104 fps=0.9 q=44.9 size=     256KiB time=00:00:00.85 bitrate=2467.7kbits/s speed=0.007x elapsed=0:02:01.37    \nframe=  104 fps=0.9 q=44.9 size=     256KiB time=00:00:00.85 bitrate=2467.7kbits/s speed=0.00697x elapsed=0:02:01.89    \nframe=  106 fps=0.9 q=46.8 size=     256KiB time=00:00:00.86 bitrate=2420.2kbits/s speed=0.00708x elapsed=0:02:02.41    \nframe=  106 fps=0.9 q=46.8 size=     256KiB time=00:00:00.86 bitrate=2420.2kbits/s speed=0.00705x elapsed=0:02:02.91    \nframe=  108 fps=0.9 q=44.4 size=     256KiB time=00:00:00.88 bitrate=2374.5kbits/s speed=0.00716x elapsed=0:02:03.43    \nframe=  109 fps=0.9 q=46.8 size=     256KiB time=00:00:00.89 bitrate=2352.3kbits/s speed=0.00719x elapsed=0:02:03.95    \nframe=  110 fps=0.9 q=46.9 size=     256KiB time=00:00:00.90 bitrate=2330.6kbits/s speed=0.00723x elapsed=0:02:04.47    \nframe=  110 fps=0.9 q=46.9 size=     256KiB time=00:00:00.90 bitrate=2330.6kbits/s speed=0.0072x elapsed=0:02:04.98    \nframe=  112 fps=0.9 q=44.6 size=     256KiB time=00:00:00.91 bitrate=2288.2kbits/s speed=0.0073x elapsed=0:02:05.49    \nframe=  112 fps=0.9 q=44.6 size=     256KiB time=00:00:00.91 bitrate=2288.2kbits/s speed=0.00727x elapsed=0:02:06.01    \nframe=  114 fps=0.9 q=47.0 size=     256KiB time=00:00:00.93 bitrate=2247.3kbits/s speed=0.00738x elapsed=0:02:06.53    \nframe=  115 fps=0.9 q=41.3 size=     256KiB time=00:00:00.94 bitrate=2227.4kbits/s speed=0.00741x elapsed=0:02:07.05    \nframe=  116 fps=0.9 q=44.5 size=     256KiB time=00:00:00.95 bitrate=2207.9kbits/s speed=0.00745x elapsed=0:02:07.55    \nframe=  117 fps=0.9 q=46.9 size=     256KiB time=00:00:00.95 bitrate=2188.7kbits/s speed=0.00748x elapsed=0:02:08.08    \nframe=  118 fps=0.9 q=46.8 size=     256KiB time=00:00:00.96 bitrate=2169.8kbits/s speed=0.00752x elapsed=0:02:08.59    \nframe=  119 fps=0.9 q=41.3 size=     256KiB time=00:00:00.97 bitrate=2151.3kbits/s speed=0.00755x elapsed=0:02:09.10    \nframe=  120 fps=0.9 q=44.3 size=     256KiB time=00:00:00.98 bitrate=2133.1kbits/s speed=0.00759x elapsed=0:02:09.62    \nframe=  121 fps=0.9 q=46.9 size=     256KiB time=00:00:00.99 bitrate=2115.1kbits/s speed=0.00762x elapsed=0:02:10.14    \nframe=  122 fps=0.9 q=46.9 size=     256KiB time=00:00:01.00 bitrate=2097.5kbits/s speed=0.00765x elapsed=0:02:10.65    \nframe=  123 fps=0.9 q=40.9 size=     256KiB time=00:00:01.00 bitrate=2080.2kbits/s speed=0.00769x elapsed=0:02:11.18    \nframe=  124 fps=0.9 q=44.7 size=     256KiB time=00:00:01.01 bitrate=2063.1kbits/s speed=0.00772x elapsed=0:02:11.70    \nframe=  125 fps=0.9 q=46.7 size=     256KiB time=00:00:01.02 bitrate=2046.3kbits/s speed=0.00775x elapsed=0:02:12.22    \nframe=  126 fps=0.9 q=46.8 size=     256KiB time=00:00:01.03 bitrate=2029.8kbits/s speed=0.00778x elapsed=0:02:12.73    \nframe=  127 fps=1.0 q=40.8 size=     256KiB time=00:00:01.04 bitrate=2013.6kbits/s speed=0.00782x elapsed=0:02:13.24    \nframe=  128 fps=1.0 q=44.9 size=     256KiB time=00:00:01.05 bitrate=1997.6kbits/s speed=0.00785x elapsed=0:02:13.76    \nframe=  129 fps=1.0 q=46.7 size=     256KiB time=00:00:01.05 bitrate=1981.9kbits/s speed=0.00788x elapsed=0:02:14.27    \nframe=  130 fps=1.0 q=46.8 size=     256KiB time=00:00:01.06 bitrate=1966.4kbits/s speed=0.00791x elapsed=0:02:14.79    \nframe=  131 fps=1.0 q=40.6 size=     256KiB time=00:00:01.07 bitrate=1951.2kbits/s speed=0.00794x elapsed=0:02:15.31    \nframe=  132 fps=1.0 q=44.8 size=     256KiB time=00:00:01.08 bitrate=1936.2kbits/s speed=0.00798x elapsed=0:02:15.83    \nframe=  133 fps=1.0 q=46.9 size=     256KiB time=00:00:01.09 bitrate=1921.4kbits/s speed=0.00801x elapsed=0:02:16.34    \nframe=  134 fps=1.0 q=46.9 size=     256KiB time=00:00:01.10 bitrate=1906.8kbits/s speed=0.00804x elapsed=0:02:16.86    \nframe=  136 fps=1.0 q=44.4 size=     256KiB time=00:00:01.11 bitrate=1878.4kbits/s speed=0.00813x elapsed=0:02:17.37    \nframe=  137 fps=1.0 q=46.7 size=     256KiB time=00:00:01.12 bitrate=1864.4kbits/s speed=0.00816x elapsed=0:02:17.88    \nframe=  138 fps=1.0 q=46.7 size=     256KiB time=00:00:01.13 bitrate=1850.7kbits/s speed=0.00819x elapsed=0:02:18.40    \nframe=  138 fps=1.0 q=46.7 size=     256KiB time=00:00:01.13 bitrate=1850.7kbits/s speed=0.00816x elapsed=0:02:18.91    \nframe=  140 fps=1.0 q=44.6 size=     256KiB time=00:00:01.15 bitrate=1823.9kbits/s speed=0.00825x elapsed=0:02:19.43    \nframe=  141 fps=1.0 q=46.9 size=     256KiB time=00:00:01.15 bitrate=1810.8kbits/s speed=0.00828x elapsed=0:02:19.94    \nframe=  142 fps=1.0 q=46.6 size=     256KiB time=00:00:01.16 bitrate=1797.9kbits/s speed=0.00831x elapsed=0:02:20.46    \nframe=  143 fps=1.0 q=40.7 size=     256KiB time=00:00:01.17 bitrate=1785.1kbits/s speed=0.00833x elapsed=0:02:20.97    \nframe=  144 fps=1.0 q=44.8 size=     256KiB time=00:00:01.18 bitrate=1772.5kbits/s speed=0.00836x elapsed=0:02:21.49    \nframe=  145 fps=1.0 q=46.7 size=     256KiB time=00:00:01.19 bitrate=1760.1kbits/s speed=0.00839x elapsed=0:02:22.01    \nframe=  146 fps=1.0 q=46.9 size=     256KiB time=00:00:01.20 bitrate=1747.9kbits/s speed=0.00842x elapsed=0:02:22.53    \nframe=  146 fps=1.0 q=46.9 size=     256KiB time=00:00:01.20 bitrate=1747.9kbits/s speed=0.00839x elapsed=0:02:23.04    \nframe=  148 fps=1.0 q=44.5 size=     256KiB time=00:00:01.21 bitrate=1724.0kbits/s speed=0.00847x elapsed=0:02:23.56    \nframe=  149 fps=1.0 q=46.8 size=     256KiB time=00:00:01.22 bitrate=1712.2kbits/s speed=0.0085x elapsed=0:02:24.08    \nframe=  150 fps=1.0 q=46.7 size=     256KiB time=00:00:01.23 bitrate=1700.7kbits/s speed=0.00853x elapsed=0:02:24.59    \nframe=  152 fps=1.0 q=44.8 size=     256KiB time=00:00:01.25 bitrate=1678.0kbits/s speed=0.00861x elapsed=0:02:25.11    \nframe=  153 fps=1.1 q=46.9 size=     256KiB time=00:00:01.25 bitrate=1666.9kbits/s speed=0.00864x elapsed=0:02:25.62    \nframe=  154 fps=1.1 q=46.7 size=     256KiB time=00:00:01.26 bitrate=1655.9kbits/s speed=0.00867x elapsed=0:02:26.14    \nframe=  155 fps=1.1 q=40.9 size=     256KiB time=00:00:01.27 bitrate=1645.1kbits/s speed=0.00869x elapsed=0:02:26.66    \nframe=  156 fps=1.1 q=44.8 size=     256KiB time=00:00:01.28 bitrate=1634.4kbits/s speed=0.00872x elapsed=0:02:27.17    \nframe=  158 fps=1.1 q=47.0 size=     256KiB time=00:00:01.30 bitrate=1613.5kbits/s speed=0.0088x elapsed=0:02:27.68    \nframe=  159 fps=1.1 q=41.1 size=     256KiB time=00:00:01.30 bitrate=1603.2kbits/s speed=0.00883x elapsed=0:02:28.19    \nframe=  160 fps=1.1 q=44.8 size=     256KiB time=00:00:01.31 bitrate=1593.0kbits/s speed=0.00885x elapsed=0:02:28.71    \nframe=  161 fps=1.1 q=46.9 size=     256KiB time=00:00:01.32 bitrate=1583.0kbits/s speed=0.00888x elapsed=0:02:29.23    \nframe=  162 fps=1.1 q=46.9 size=     256KiB time=00:00:01.33 bitrate=1573.1kbits/s speed=0.0089x elapsed=0:02:29.74    \nframe=  164 fps=1.1 q=44.6 size=     256KiB time=00:00:01.35 bitrate=1553.7kbits/s speed=0.00898x elapsed=0:02:30.26    \nframe=  165 fps=1.1 q=46.9 size=     256KiB time=00:00:01.35 bitrate=1544.2kbits/s speed=0.00901x elapsed=0:02:30.78    \nframe=  166 fps=1.1 q=46.8 size=     256KiB time=00:00:01.36 bitrate=1534.8kbits/s speed=0.00903x elapsed=0:02:31.29    \nframe=  168 fps=1.1 q=44.9 size=     256KiB time=00:00:01.38 bitrate=1516.3kbits/s speed=0.00911x elapsed=0:02:31.81    \nframe=  168 fps=1.1 q=44.9 size=     256KiB time=00:00:01.38 bitrate=1516.3kbits/s speed=0.00908x elapsed=0:02:32.33    \nframe=  170 fps=1.1 q=46.9 size=     256KiB time=00:00:01.40 bitrate=1498.2kbits/s speed=0.00916x elapsed=0:02:32.84    \nframe=  171 fps=1.1 q=40.7 size=     256KiB time=00:00:01.40 bitrate=1489.4kbits/s speed=0.00918x elapsed=0:02:33.35    \nframe=  172 fps=1.1 q=44.5 size=     512KiB time=00:00:01.41 bitrate=2960.9kbits/s speed=0.00921x elapsed=0:02:33.88    \nframe=  174 fps=1.1 q=47.0 size=     512KiB time=00:00:01.43 bitrate=2926.5kbits/s speed=0.00928x elapsed=0:02:34.38    \nframe=  174 fps=1.1 q=47.0 size=     512KiB time=00:00:01.43 bitrate=2926.5kbits/s speed=0.00925x elapsed=0:02:34.90    \nframe=  176 fps=1.1 q=44.9 size=     512KiB time=00:00:01.45 bitrate=2892.9kbits/s speed=0.00933x elapsed=0:02:35.42    \nframe=  177 fps=1.1 q=46.9 size=     512KiB time=00:00:01.45 bitrate=2876.3kbits/s speed=0.00935x elapsed=0:02:35.93    \nframe=  178 fps=1.1 q=47.0 size=     512KiB time=00:00:01.46 bitrate=2860.0kbits/s speed=0.00937x elapsed=0:02:36.45    \nframe=  180 fps=1.1 q=44.8 size=     512KiB time=00:00:01.48 bitrate=2827.9kbits/s speed=0.00945x elapsed=0:02:36.96    \nframe=  181 fps=1.1 q=46.9 size=     512KiB time=00:00:01.49 bitrate=2812.1kbits/s speed=0.00947x elapsed=0:02:37.48    \nframe=  182 fps=1.2 q=46.9 size=     512KiB time=00:00:01.50 bitrate=2796.4kbits/s speed=0.00949x elapsed=0:02:37.99    \nframe=  183 fps=1.2 q=41.2 size=     512KiB time=00:00:01.50 bitrate=2781.0kbits/s speed=0.00952x elapsed=0:02:38.51    \nframe=  184 fps=1.2 q=44.5 size=     512KiB time=00:00:01.51 bitrate=2765.7kbits/s speed=0.00954x elapsed=0:02:39.03    \nframe=  186 fps=1.2 q=47.0 size=     512KiB time=00:00:01.53 bitrate=2735.6kbits/s speed=0.00961x elapsed=0:02:39.53    \nframe=  187 fps=1.2 q=40.8 size=     512KiB time=00:00:01.54 bitrate=2720.9kbits/s speed=0.00963x elapsed=0:02:40.06    \nframe=  188 fps=1.2 q=44.6 size=     512KiB time=00:00:01.55 bitrate=2706.2kbits/s speed=0.00965x elapsed=0:02:40.57    \nframe=  189 fps=1.2 q=46.9 size=     512KiB time=00:00:01.55 bitrate=2691.8kbits/s speed=0.00967x elapsed=0:02:41.09    \nframe=  190 fps=1.2 q=46.9 size=     512KiB time=00:00:01.56 bitrate=2677.4kbits/s speed=0.00969x elapsed=0:02:41.60    \nframe=  192 fps=1.2 q=44.6 size=     512KiB time=00:00:01.58 bitrate=2649.3kbits/s speed=0.00977x elapsed=0:02:42.11    \nframe=  193 fps=1.2 q=46.9 size=     512KiB time=00:00:01.59 bitrate=2635.4kbits/s speed=0.00979x elapsed=0:02:42.64    \nframe=  194 fps=1.2 q=46.9 size=     512KiB time=00:00:01.60 bitrate=2621.7kbits/s speed=0.00981x elapsed=0:02:43.16    \nframe=  196 fps=1.2 q=44.6 size=     512KiB time=00:00:01.61 bitrate=2594.6kbits/s speed=0.00988x elapsed=0:02:43.67    \nframe=  197 fps=1.2 q=46.8 size=     512KiB time=00:00:01.62 bitrate=2581.3kbits/s speed=0.0099x elapsed=0:02:44.18    \nframe=  198 fps=1.2 q=46.8 size=     512KiB time=00:00:01.63 bitrate=2568.2kbits/s speed=0.00992x elapsed=0:02:44.71    \nframe=  199 fps=1.2 q=41.0 size=     512KiB time=00:00:01.64 bitrate=2555.1kbits/s speed=0.00994x elapsed=0:02:45.22    \nframe=  200 fps=1.2 q=44.7 size=     512KiB time=00:00:01.65 bitrate=2542.2kbits/s speed=0.00996x elapsed=0:02:45.73    \nframe=  202 fps=1.2 q=46.9 size=     512KiB time=00:00:01.66 bitrate=2516.8kbits/s speed=0.01x elapsed=0:02:46.25    \nframe=  203 fps=1.2 q=41.1 size=     512KiB time=00:00:01.67 bitrate=2504.3kbits/s speed=0.01x elapsed=0:02:46.76    \nframe=  204 fps=1.2 q=44.8 size=     512KiB time=00:00:01.68 bitrate=2491.9kbits/s speed=0.0101x elapsed=0:02:47.28    \nframe=  205 fps=1.2 q=46.8 size=     512KiB time=00:00:01.69 bitrate=2479.6kbits/s speed=0.0101x elapsed=0:02:47.79    \nframe=  206 fps=1.2 q=46.8 size=     512KiB time=00:00:01.70 bitrate=2467.4kbits/s speed=0.0101x elapsed=0:02:48.31    \nframe=  208 fps=1.2 q=44.3 size=     512KiB time=00:00:01.71 bitrate=2443.5kbits/s speed=0.0102x elapsed=0:02:48.83    \nframe=  209 fps=1.2 q=46.9 size=     512KiB time=00:00:01.72 bitrate=2431.7kbits/s speed=0.0102x elapsed=0:02:49.34    \nframe=  210 fps=1.2 q=47.0 size=     512KiB time=00:00:01.73 bitrate=2420.0kbits/s speed=0.0102x elapsed=0:02:49.85    \nframe=  211 fps=1.2 q=41.1 size=     512KiB time=00:00:01.74 bitrate=2408.4kbits/s speed=0.0102x elapsed=0:02:50.37    \nframe=  212 fps=1.2 q=45.0 size=     512KiB time=00:00:01.75 bitrate=2396.9kbits/s speed=0.0102x elapsed=0:02:50.88    \nframe=  213 fps=1.2 q=46.9 size=     512KiB time=00:00:01.75 bitrate=2385.6kbits/s speed=0.0103x elapsed=0:02:51.40    \nframe=  214 fps=1.2 q=46.9 size=     512KiB time=00:00:01.76 bitrate=2374.3kbits/s speed=0.0103x elapsed=0:02:51.92    \nframe=  216 fps=1.3 q=44.3 size=     512KiB time=00:00:01.78 bitrate=2352.1kbits/s speed=0.0103x elapsed=0:02:52.43    \nframe=  217 fps=1.3 q=47.0 size=     512KiB time=00:00:01.79 bitrate=2341.2kbits/s speed=0.0104x elapsed=0:02:52.96    \nframe=  218 fps=1.3 q=47.0 size=     512KiB time=00:00:01.80 bitrate=2330.4kbits/s speed=0.0104x elapsed=0:02:53.47    \nframe=  219 fps=1.3 q=41.2 size=     512KiB time=00:00:01.80 bitrate=2319.6kbits/s speed=0.0104x elapsed=0:02:53.97    \nframe=  220 fps=1.3 q=44.5 size=     512KiB time=00:00:01.81 bitrate=2309.0kbits/s speed=0.0104x elapsed=0:02:54.50    \nframe=  222 fps=1.3 q=47.0 size=     512KiB time=00:00:01.83 bitrate=2288.0kbits/s speed=0.0105x elapsed=0:02:55.00    \nframe=  223 fps=1.3 q=41.0 size=     512KiB time=00:00:01.84 bitrate=2277.6kbits/s speed=0.0105x elapsed=0:02:55.52    \nframe=  224 fps=1.3 q=44.6 size=     512KiB time=00:00:01.85 bitrate=2267.4kbits/s speed=0.0105x elapsed=0:02:56.04    \nframe=  225 fps=1.3 q=46.9 size=     512KiB time=00:00:01.85 bitrate=2257.2kbits/s speed=0.0105x elapsed=0:02:56.55    \nframe=  226 fps=1.3 q=46.9 size=     512KiB time=00:00:01.86 bitrate=2247.1kbits/s speed=0.0105x elapsed=0:02:57.07    \nframe=  228 fps=1.3 q=44.9 size=     512KiB time=00:00:01.88 bitrate=2227.3kbits/s speed=0.0106x elapsed=0:02:57.58    \nframe=  229 fps=1.3 q=47.0 size=     512KiB time=00:00:01.89 bitrate=2217.4kbits/s speed=0.0106x elapsed=0:02:58.10    \nframe=  230 fps=1.3 q=46.9 size=     512KiB time=00:00:01.90 bitrate=2207.7kbits/s speed=0.0106x elapsed=0:02:58.62    \nframe=  231 fps=1.3 q=41.1 size=     512KiB time=00:00:01.90 bitrate=2198.1kbits/s speed=0.0107x elapsed=0:02:59.14    \nframe=  232 fps=1.3 q=45.0 size=     512KiB time=00:00:01.91 bitrate=2188.5kbits/s speed=0.0107x elapsed=0:02:59.65    \nframe=  233 fps=1.3 q=47.0 size=     512KiB time=00:00:01.92 bitrate=2179.0kbits/s speed=0.0107x elapsed=0:03:00.17    \nframe=  234 fps=1.3 q=47.0 size=     512KiB time=00:00:01.93 bitrate=2169.7kbits/s speed=0.0107x elapsed=0:03:00.68    \nframe=  236 fps=1.3 q=44.7 size=     512KiB time=00:00:01.95 bitrate=2151.1kbits/s speed=0.0108x elapsed=0:03:01.20    \nframe=  237 fps=1.3 q=47.0 size=     512KiB time=00:00:01.95 bitrate=2142.0kbits/s speed=0.0108x elapsed=0:03:01.71    \nframe=  238 fps=1.3 q=47.0 size=     512KiB time=00:00:01.96 bitrate=2132.9kbits/s speed=0.0108x elapsed=0:03:02.23    \nframe=  240 fps=1.3 q=45.0 size=     512KiB time=00:00:01.98 bitrate=2115.0kbits/s speed=0.0109x elapsed=0:03:02.75    \nframe=  241 fps=1.3 q=46.7 size=     512KiB time=00:00:01.99 bitrate=2106.1kbits/s speed=0.0109x elapsed=0:03:03.26    \nframe=  242 fps=1.3 q=47.0 size=     512KiB time=00:00:02.00 bitrate=2097.3kbits/s speed=0.0109x elapsed=0:03:03.78    \nframe=  243 fps=1.3 q=41.8 size=     512KiB time=00:00:02.00 bitrate=2088.6kbits/s speed=0.0109x elapsed=0:03:04.29    \nframe=  244 fps=1.3 q=44.8 size=     512KiB time=00:00:02.01 bitrate=2080.0kbits/s speed=0.0109x elapsed=0:03:04.80    \nframe=  246 fps=1.3 q=46.9 size=     512KiB time=00:00:02.03 bitrate=2062.9kbits/s speed=0.011x elapsed=0:03:05.32    \nframe=  246 fps=1.3 q=46.9 size=     512KiB time=00:00:02.03 bitrate=2062.9kbits/s speed=0.0109x elapsed=0:03:05.84    \nframe=  247 fps=1.3 q=41.6 size=     512KiB time=00:00:02.04 bitrate=2054.5kbits/s speed=0.011x elapsed=0:03:06.36    \nframe=  248 fps=1.3 q=44.7 size=     512KiB time=00:00:02.05 bitrate=2046.2kbits/s speed=0.011x elapsed=0:03:06.87    \nframe=  249 fps=1.3 q=47.0 size=     512KiB time=00:00:02.05 bitrate=2037.9kbits/s speed=0.011x elapsed=0:03:07.38    \nframe=  250 fps=1.3 q=47.1 size=     512KiB time=00:00:02.06 bitrate=2029.7kbits/s speed=0.011x elapsed=0:03:07.90    \nframe=  251 fps=1.3 q=39.1 size=     768KiB time=00:00:02.07 bitrate=3032.2kbits/s speed=0.011x elapsed=0:03:08.42    \nframe=  252 fps=1.3 q=41.4 size=     768KiB time=00:00:02.08 bitrate=3020.1kbits/s speed=0.011x elapsed=0:03:08.93    \nframe=  254 fps=1.3 q=47.0 size=     768KiB time=00:00:02.10 bitrate=2996.1kbits/s speed=0.0111x elapsed=0:03:09.45    \nframe=  256 fps=1.3 q=46.9 size=     768KiB time=00:00:02.11 bitrate=2972.5kbits/s speed=0.0111x elapsed=0:03:09.96    \nframe=  257 fps=1.3 q=41.3 size=     768KiB time=00:00:02.12 bitrate=2960.9kbits/s speed=0.0112x elapsed=0:03:10.48    \nframe=  258 fps=1.4 q=44.6 size=     768KiB time=00:00:02.13 bitrate=2949.3kbits/s speed=0.0112x elapsed=0:03:11.00    \nframe=  259 fps=1.4 q=47.0 size=     768KiB time=00:00:02.14 bitrate=2937.8kbits/s speed=0.0112x elapsed=0:03:11.51    \nframe=  260 fps=1.4 q=46.9 size=     768KiB time=00:00:02.15 bitrate=2926.4kbits/s speed=0.0112x elapsed=0:03:12.02    \nframe=  261 fps=1.4 q=41.2 size=     768KiB time=00:00:02.15 bitrate=2915.1kbits/s speed=0.0112x elapsed=0:03:12.54    \nframe=  262 fps=1.4 q=42.9 size=     768KiB time=00:00:02.16 bitrate=2903.9kbits/s speed=0.0112x elapsed=0:03:13.05    \nframe=  264 fps=1.4 q=46.9 size=     768KiB time=00:00:02.18 bitrate=2881.7kbits/s speed=0.0113x elapsed=0:03:13.57    \nframe=  265 fps=1.4 q=47.0 size=     768KiB time=00:00:02.19 bitrate=2870.8kbits/s speed=0.0113x elapsed=0:03:14.09    \nframe=  266 fps=1.4 q=41.5 size=     768KiB time=00:00:02.20 bitrate=2859.9kbits/s speed=0.0113x elapsed=0:03:14.61    \nframe=  268 fps=1.4 q=46.8 size=     768KiB time=00:00:02.21 bitrate=2838.4kbits/s speed=0.0114x elapsed=0:03:15.12    \nframe=  269 fps=1.4 q=47.0 size=     768KiB time=00:00:02.22 bitrate=2827.8kbits/s speed=0.0114x elapsed=0:03:15.64    \nframe=  271 fps=1.4 q=44.8 size=     768KiB time=00:00:02.24 bitrate=2806.8kbits/s speed=0.0114x elapsed=0:03:16.15    \nframe=  273 fps=1.4 q=47.0 size=     768KiB time=00:00:02.25 bitrate=2786.0kbits/s speed=0.0115x elapsed=0:03:16.67    \nframe=  276 fps=1.4 q=47.0 size=     768KiB time=00:00:02.28 bitrate=2755.5kbits/s speed=0.0116x elapsed=0:03:17.19    \nframe=  278 fps=1.4 q=41.2 size=     768KiB time=00:00:02.30 bitrate=2735.6kbits/s speed=0.0116x elapsed=0:03:17.72    \nframe=  281 fps=1.4 q=47.0 size=     768KiB time=00:00:02.32 bitrate=2706.2kbits/s speed=0.0117x elapsed=0:03:18.23    \nframe=  282 fps=1.4 q=41.3 size=     768KiB time=00:00:02.33 bitrate=2696.5kbits/s speed=0.0117x elapsed=0:03:18.74    \nframe=  285 fps=1.4 q=47.1 size=     768KiB time=00:00:02.35 bitrate=2667.9kbits/s speed=0.0118x elapsed=0:03:19.26    \nframe=  287 fps=1.4 q=44.8 size=     768KiB time=00:00:02.37 bitrate=2649.2kbits/s speed=0.0119x elapsed=0:03:19.77    \nframe=  289 fps=1.4 q=47.0 size=     768KiB time=00:00:02.39 bitrate=2630.7kbits/s speed=0.0119x elapsed=0:03:20.29    \nframe=  292 fps=1.5 q=47.0 size=     768KiB time=00:00:02.41 bitrate=2603.5kbits/s speed=0.012x elapsed=0:03:20.81    \nframe=  294 fps=1.5 q=41.5 size=     768KiB time=00:00:02.43 bitrate=2585.7kbits/s speed=0.0121x elapsed=0:03:21.32    \nframe=  297 fps=1.5 q=47.1 size=     768KiB time=00:00:02.45 bitrate=2559.4kbits/s speed=0.0122x elapsed=0:03:21.84    \nframe=  299 fps=1.5 q=44.9 size=     768KiB time=00:00:02.47 bitrate=2542.1kbits/s speed=0.0122x elapsed=0:03:22.36    \nframe=  301 fps=1.5 q=46.9 size=     768KiB time=00:00:02.49 bitrate=2525.1kbits/s speed=0.0123x elapsed=0:03:22.88    \nframe=  304 fps=1.5 q=46.9 size=     768KiB time=00:00:02.51 bitrate=2500.1kbits/s speed=0.0124x elapsed=0:03:23.40    \nframe=  306 fps=1.5 q=41.9 size=     768KiB time=00:00:02.53 bitrate=2483.6kbits/s speed=0.0124x elapsed=0:03:23.91    \nframe=  309 fps=1.5 q=47.0 size=     768KiB time=00:00:02.55 bitrate=2459.3kbits/s speed=0.0125x elapsed=0:03:24.43    \nframe=  311 fps=1.5 q=45.1 size=     768KiB time=00:00:02.57 bitrate=2443.4kbits/s speed=0.0126x elapsed=0:03:24.94    \nframe=  313 fps=1.5 q=47.8 size=     768KiB time=00:00:02.59 bitrate=2427.7kbits/s speed=0.0126x elapsed=0:03:25.47    \nframe=  317 fps=1.5 q=48.0 size=     768KiB time=00:00:02.62 bitrate=2396.9kbits/s speed=0.0127x elapsed=0:03:25.99    \nframe=  319 fps=1.5 q=45.8 size=     768KiB time=00:00:02.64 bitrate=2381.8kbits/s speed=0.0128x elapsed=0:03:26.49    \nframe=  321 fps=1.6 q=48.0 size=     768KiB time=00:00:02.65 bitrate=2366.8kbits/s speed=0.0128x elapsed=0:03:27.01    \nframe=  323 fps=1.6 q=45.7 size=    1024KiB time=00:00:02.67 bitrate=3136.1kbits/s speed=0.0129x elapsed=0:03:27.52    \nframe=  325 fps=1.6 q=47.9 size=    1024KiB time=00:00:02.69 bitrate=3116.6kbits/s speed=0.0129x elapsed=0:03:28.05    \nframe=  327 fps=1.6 q=45.7 size=    1024KiB time=00:00:02.70 bitrate=3097.5kbits/s speed=0.013x elapsed=0:03:28.55    \nframe=  330 fps=1.6 q=42.1 size=    1024KiB time=00:00:02.73 bitrate=3069.1kbits/s speed=0.0131x elapsed=0:03:29.07    \nframe=  332 fps=1.6 q=47.9 size=    1024KiB time=00:00:02.75 bitrate=3050.5kbits/s speed=0.0131x elapsed=0:03:29.60    \nframe=  334 fps=1.6 q=42.2 size=    1024KiB time=00:00:02.76 bitrate=3032.2kbits/s speed=0.0132x elapsed=0:03:30.12    \nframe=  337 fps=1.6 q=48.0 size=    1024KiB time=00:00:02.79 bitrate=3005.0kbits/s speed=0.0133x elapsed=0:03:30.63    \nframe=  340 fps=1.6 q=47.8 size=    1024KiB time=00:00:02.81 bitrate=2978.3kbits/s speed=0.0133x elapsed=0:03:31.16    \nframe=  342 fps=1.6 q=42.2 size=    1024KiB time=00:00:02.83 bitrate=2960.8kbits/s speed=0.0134x elapsed=0:03:31.67    \nframe=  345 fps=1.6 q=48.0 size=    1024KiB time=00:00:02.85 bitrate=2934.9kbits/s speed=0.0135x elapsed=0:03:32.18    \nframe=  347 fps=1.6 q=45.7 size=    1024KiB time=00:00:02.87 bitrate=2917.9kbits/s speed=0.0135x elapsed=0:03:32.70    \nframe=  350 fps=1.6 q=42.0 size=    1024KiB time=00:00:02.90 bitrate=2892.7kbits/s speed=0.0136x elapsed=0:03:33.21    \nframe=  353 fps=1.7 q=47.9 size=    1024KiB time=00:00:02.92 bitrate=2868.0kbits/s speed=0.0137x elapsed=0:03:33.73    \nframe=  355 fps=1.7 q=45.7 size=    1024KiB time=00:00:02.94 bitrate=2851.8kbits/s speed=0.0137x elapsed=0:03:34.26    \nframe=  357 fps=1.7 q=47.9 size=    1024KiB time=00:00:02.95 bitrate=2835.7kbits/s speed=0.0138x elapsed=0:03:34.77    \nframe=  360 fps=1.7 q=47.9 size=    1024KiB time=00:00:02.98 bitrate=2811.9kbits/s speed=0.0139x elapsed=0:03:35.30    \nframe=  363 fps=1.7 q=45.7 size=    1024KiB time=00:00:03.00 bitrate=2788.6kbits/s speed=0.0139x elapsed=0:03:35.80    \nframe=  365 fps=1.7 q=48.0 size=    1024KiB time=00:00:03.02 bitrate=2773.2kbits/s speed=0.014x elapsed=0:03:36.32    \nframe=  368 fps=1.7 q=48.0 size=    1024KiB time=00:00:03.05 bitrate=2750.5kbits/s speed=0.0141x elapsed=0:03:36.84    \nframe=  370 fps=1.7 q=41.8 size=    1024KiB time=00:00:03.06 bitrate=2735.5kbits/s speed=0.0141x elapsed=0:03:37.37    \nframe=  373 fps=1.7 q=48.0 size=    1024KiB time=00:00:03.09 bitrate=2713.4kbits/s speed=0.0142x elapsed=0:03:37.88    \nframe=  376 fps=1.7 q=48.0 size=    1024KiB time=00:00:03.11 bitrate=2691.6kbits/s speed=0.0143x elapsed=0:03:38.40    \nframe=  378 fps=1.7 q=42.2 size=    1024KiB time=00:00:03.13 bitrate=2677.3kbits/s speed=0.0143x elapsed=0:03:38.93    \nframe=  382 fps=1.7 q=42.4 size=    1024KiB time=00:00:03.16 bitrate=2649.1kbits/s speed=0.0144x elapsed=0:03:39.45    \nframe=  385 fps=1.8 q=48.0 size=    1024KiB time=00:00:03.19 bitrate=2628.4kbits/s speed=0.0145x elapsed=0:03:39.96    \nframe=  389 fps=1.8 q=48.0 size=    1024KiB time=00:00:03.22 bitrate=2601.2kbits/s speed=0.0146x elapsed=0:03:40.49    \nframe=  393 fps=1.8 q=48.0 size=    1024KiB time=00:00:03.25 bitrate=2574.6kbits/s speed=0.0147x elapsed=0:03:40.99    \nframe=  396 fps=1.8 q=48.0 size=    1024KiB time=00:00:03.28 bitrate=2555.0kbits/s speed=0.0148x elapsed=0:03:41.51    \nframe=  401 fps=1.8 q=48.0 size=    1024KiB time=00:00:03.32 bitrate=2523.0kbits/s speed=0.015x elapsed=0:03:42.03    \nframe=  405 fps=1.8 q=48.0 size=    1280KiB time=00:00:03.35 bitrate=3122.4kbits/s speed=0.0151x elapsed=0:03:42.54    \nframe=  409 fps=1.8 q=48.0 size=    1280KiB time=00:00:03.39 bitrate=3091.7kbits/s speed=0.0152x elapsed=0:03:43.06    \nframe=  413 fps=1.8 q=48.0 size=    1280KiB time=00:00:03.42 bitrate=3061.6kbits/s speed=0.0153x elapsed=0:03:43.57    \nframe=  417 fps=1.9 q=48.0 size=    1280KiB time=00:00:03.45 bitrate=3032.1kbits/s speed=0.0154x elapsed=0:03:44.09    \nframe=  421 fps=1.9 q=48.0 size=    1280KiB time=00:00:03.49 bitrate=3003.2kbits/s speed=0.0155x elapsed=0:03:44.60    \nframe=  425 fps=1.9 q=48.1 size=    1280KiB time=00:00:03.52 bitrate=2974.8kbits/s speed=0.0157x elapsed=0:03:45.12    \nframe=  430 fps=1.9 q=41.7 size=    1280KiB time=00:00:03.56 bitrate=2940.0kbits/s speed=0.0158x elapsed=0:03:45.63    \nframe=  434 fps=1.9 q=42.6 size=    1280KiB time=00:00:03.60 bitrate=2912.8kbits/s speed=0.0159x elapsed=0:03:46.15    \nframe=  438 fps=1.9 q=41.9 size=    1280KiB time=00:00:03.63 bitrate=2886.1kbits/s speed=0.016x elapsed=0:03:46.68    \nframe=  442 fps=1.9 q=42.1 size=    1280KiB time=00:00:03.66 bitrate=2859.8kbits/s speed=0.0161x elapsed=0:03:47.18    \nframe=  446 fps=2.0 q=42.2 size=    1280KiB time=00:00:03.70 bitrate=2834.1kbits/s speed=0.0162x elapsed=0:03:47.70    \nframe=  453 fps=2.0 q=48.8 size=    1280KiB time=00:00:03.75 bitrate=2790.1kbits/s speed=0.0165x elapsed=0:03:48.22    \nframe=  460 fps=2.0 q=49.0 size=    1280KiB time=00:00:03.81 bitrate=2747.5kbits/s speed=0.0167x elapsed=0:03:48.72    \nframe=  467 fps=2.0 q=46.3 size=    1280KiB time=00:00:03.87 bitrate=2706.1kbits/s speed=0.0169x elapsed=0:03:49.25    \nframe=  473 fps=2.1 q=48.9 size=    1280KiB time=00:00:03.92 bitrate=2671.6kbits/s speed=0.0171x elapsed=0:03:49.76    \nframe=  481 fps=2.1 q=48.9 size=    1280KiB time=00:00:03.99 bitrate=2627.0kbits/s speed=0.0173x elapsed=0:03:50.27    \nframe=  487 fps=2.1 q=46.2 size=    1536KiB time=00:00:04.04 bitrate=3113.4kbits/s speed=0.0175x elapsed=0:03:50.79    \nframe=  494 fps=2.1 q=42.2 size=    1536KiB time=00:00:04.10 bitrate=3069.1kbits/s speed=0.0177x elapsed=0:03:51.30    \nframe=  502 fps=2.2 q=41.8 size=    1536KiB time=00:00:04.16 bitrate=3020.0kbits/s speed=0.018x elapsed=0:03:51.83    \nframe=  509 fps=2.2 q=48.0 size=    1536KiB time=00:00:04.22 bitrate=2978.3kbits/s speed=0.0182x elapsed=0:03:52.34    \nframe=  516 fps=2.2 q=47.9 size=    1536KiB time=00:00:04.28 bitrate=2937.7kbits/s speed=0.0184x elapsed=0:03:52.86    \nframe=  523 fps=2.2 q=46.2 size=    1536KiB time=00:00:04.34 bitrate=2898.3kbits/s speed=0.0186x elapsed=0:03:53.37    \nframe=  530 fps=2.3 q=41.9 size=    1536KiB time=00:00:04.40 bitrate=2859.8kbits/s speed=0.0188x elapsed=0:03:53.88    \nframe=  538 fps=2.3 q=42.4 size=    1536KiB time=00:00:04.46 bitrate=2817.1kbits/s speed=0.0191x elapsed=0:03:54.40    \nframe=  545 fps=2.3 q=47.9 size=    1536KiB time=00:00:04.52 bitrate=2780.8kbits/s speed=0.0193x elapsed=0:03:54.91    \nframe=  553 fps=2.3 q=48.9 size=    1536KiB time=00:00:04.59 bitrate=2740.5kbits/s speed=0.0195x elapsed=0:03:55.43    \nframe=  561 fps=2.4 q=49.0 size=    1536KiB time=00:00:04.65 bitrate=2701.2kbits/s speed=0.0197x elapsed=0:03:55.95    \nframe=  569 fps=2.4 q=48.9 size=    1792KiB time=00:00:04.72 bitrate=3107.0kbits/s speed=0.02x elapsed=0:03:56.46    \nframe=  577 fps=2.4 q=49.0 size=    1792KiB time=00:00:04.79 bitrate=3063.7kbits/s speed=0.0202x elapsed=0:03:56.98    \nframe=  586 fps=2.5 q=49.0 size=    1792KiB time=00:00:04.86 bitrate=3016.5kbits/s speed=0.0205x elapsed=0:03:57.50    \nframe=  594 fps=2.5 q=46.6 size=    1792KiB time=00:00:04.93 bitrate=2975.8kbits/s speed=0.0207x elapsed=0:03:58.01    \n[mp4 @ 000001726641b780] Starting second pass: moving the moov atom to the beginning of the file\n[out#0/mp4 @ 000001726641b640] video:1902KiB audio:0KiB subtitle:0KiB other streams:0KiB global headers:2KiB muxing overhead: 0.572411%\nframe=  600 fps=2.5 q=49.0 Lsize=    1913KiB time=00:00:04.98 bitrate=3144.1kbits/s speed=0.0209x elapsed=0:03:58.24    \nx265 [info]: frame I:      3, Avg QP:42.06  kb/s: 13293.76\nx265 [info]: frame P:    147, Avg QP:41.72  kb/s: 9379.54 \nx265 [info]: frame B:    450, Avg QP:46.94  kb/s: 996.68  \nx265 [info]: Weighted P-Frames: Y:0.0% UV:0.0%\n\nencoded 600 frames in 238.12s (2.52 fps), 3111.97 kb/s, Avg QP:45.63\n",
  "seconds": 238.38452649116516,
  "probe_out": {}
}